<svg width="69" height="69" viewBox="0 0 69 69" fill="none" xmlns="http://www.w3.org/2000/svg">
<g clip-path="url(#clip0_13566_19694)">
<path d="M55.0574 25.9539C55.3136 25.9539 55.5734 25.9786 55.8343 26.0299C58.002 26.4566 59.4134 28.5599 58.9868 30.7278C58.6114 32.6347 56.9387 33.9565 55.0661 33.9565C54.8099 33.9565 54.5501 33.9318 54.2892 33.8805C52.1215 33.4538 50.7101 31.3505 51.1367 29.1827C51.5119 27.2758 53.1848 25.9541 55.0574 25.9539ZM55.0576 21.4539C51.0097 21.4541 47.5036 24.3392 46.7214 28.3137C45.8164 32.9126 48.8213 37.3905 53.42 38.2958C53.962 38.4025 54.5158 38.4566 55.066 38.4566C59.1137 38.4566 62.6195 35.5718 63.4019 31.5971C64.3069 26.9979 61.3019 22.52 56.7033 21.6147C56.1613 21.508 55.6077 21.4539 55.0576 21.4539Z" fill="black"/>
<path d="M36.3169 18.5097C37.5549 19.3475 38.6345 20.4195 39.5012 21.6902L45.8967 15.2949L48.0993 20.1959C49.3188 19.3242 50.7018 18.6801 52.1855 18.312L47.3264 7.5L36.3169 18.5097Z" fill="black"/>
<path d="M68.5957 54.8272L61.8592 39.8379C60.6262 40.6879 59.2285 41.3009 57.738 41.6434L61.6406 50.3272H52.5178C52.7976 51.7953 52.8017 53.3163 52.5132 54.8272H68.5957Z" fill="black"/>
<path d="M10.8633 50.3272L22.8274 38.3634C21.5933 37.5209 20.5156 36.4475 19.6537 35.1731L0 54.8272H28.9408C28.6608 53.3592 28.6565 51.8381 28.9453 50.3272H10.8633Z" fill="black"/>
<path d="M29.5872 24.4497C29.8434 24.4497 30.1032 24.4744 30.3641 24.5257C32.5318 24.9524 33.9432 27.0557 33.5166 29.2235C33.1414 31.1305 31.4685 32.4523 29.5959 32.4523C29.3397 32.4523 29.0799 32.4276 28.819 32.3763C26.6513 31.9496 25.2399 29.8463 25.6665 27.6785C26.0417 25.7715 27.7145 24.4499 29.5872 24.4497ZM29.5873 19.9497C25.5394 19.9499 22.0335 22.8349 21.2513 26.8095C20.3461 31.4084 23.3512 35.8863 27.9499 36.7916C28.4919 36.8983 29.0457 36.9524 29.5959 36.9524C33.6439 36.9524 37.1496 34.0675 37.9318 30.0926C38.837 25.4937 35.8318 21.0158 31.2332 20.1105C30.6912 20.0038 30.1375 19.9497 29.5873 19.9497Z" fill="black"/>
<path d="M52.9156 34.0535L50.0738 30.5652L43.4229 35.9829L34.5391 29.3269L31.8408 32.9285L40.957 39.7586L39.1216 47.6599L43.5044 48.6775L45.4984 40.0956L52.9156 34.0535Z" fill="black"/>
<path d="M40.725 48.5754C40.9812 48.5754 41.241 48.6001 41.5019 48.6514C43.6696 49.0781 45.0811 51.1814 44.6544 53.3492C44.2792 55.2562 42.6064 56.578 40.7339 56.578C40.4777 56.578 40.2179 56.5533 39.957 56.502C37.7893 56.0753 36.3778 53.972 36.8045 51.8042C37.1797 49.8972 38.8526 48.5756 40.725 48.5754ZM40.7253 44.0754C36.6773 44.0756 33.1714 46.9606 32.3892 50.9352C31.9506 53.1628 32.4059 55.4281 33.6712 57.3135C34.9363 59.1989 36.86 60.4787 39.0878 60.9173C39.6298 61.024 40.1836 61.0781 40.7338 61.0781C44.7817 61.0781 48.2874 58.1932 49.0696 54.2183C49.5082 51.9907 49.0529 49.7254 47.7876 47.84C46.5225 45.9546 44.5988 44.6748 42.371 44.2362C41.829 44.1295 41.2753 44.0754 40.7253 44.0754Z" fill="black"/>
</g>
<defs>
<clipPath id="clip0_13566_19694">
<rect width="69" height="54" fill="white" transform="translate(0 7.5)"/>
</clipPath>
</defs>
</svg>
